<svg width="24" height="24" viewBox="0 0 24 24" fill="none" xmlns="http://www.w3.org/2000/svg">
<path d="M3.33146 14.2453C3.85863 16.0634 4.95356 17.6652 6.45619 18.8165C7.99096 19.9953 9.87358 20.6314 11.8088 20.625C16.6701 20.625 20.625 16.6742 20.625 11.8179C20.6314 9.87473 19.9884 7.98509 18.798 6.44915C17.6337 4.94261 16.0159 3.85038 14.1833 3.33369C14.0402 3.29471 13.9063 3.22784 13.7892 3.13691C13.672 3.04598 13.574 2.9328 13.5008 2.80386C13.4276 2.67493 13.3806 2.53279 13.3625 2.38562C13.3443 2.23845 13.3555 2.08915 13.3953 1.94631C13.4351 1.80347 13.5028 1.66991 13.5944 1.5533C13.6859 1.4367 13.7997 1.33935 13.929 1.26686C14.0584 1.19437 14.2008 1.14817 14.3481 1.13091C14.4954 1.11365 14.6446 1.12567 14.7872 1.16629C17.0874 1.81429 19.1182 3.18473 20.5799 5.07529C21.8393 6.71251 22.6149 8.66973 22.8188 10.7252C23.0228 12.7806 22.647 14.8521 21.734 16.7049C20.821 18.5577 19.4073 20.1178 17.6531 21.2083C15.8989 22.2988 13.8743 22.8762 11.8088 22.875C9.37945 22.8828 7.01619 22.0841 5.08964 20.6042C3.20365 19.1585 1.82962 17.1474 1.16846 14.8649L3.33146 14.2453Z" fill="#525252"/>
<path d="M9.375 3.375C9.99632 3.375 10.5 2.87132 10.5 2.25C10.5 1.62868 9.99632 1.125 9.375 1.125C8.75368 1.125 8.25 1.62868 8.25 2.25C8.25 2.87132 8.75368 3.375 9.375 3.375Z" fill="#525252"/>
<path d="M2.625 10.125C3.24632 10.125 3.75 9.62132 3.75 9C3.75 8.37868 3.24632 7.875 2.625 7.875C2.00368 7.875 1.5 8.37868 1.5 9C1.5 9.62132 2.00368 10.125 2.625 10.125Z" fill="#525252"/>
<path d="M5.10938 5.85938C5.7307 5.85938 6.23438 5.3557 6.23438 4.73438C6.23438 4.11305 5.7307 3.60938 5.10938 3.60938C4.48805 3.60938 3.98438 4.11305 3.98438 4.73438C3.98438 5.3557 4.48805 5.85938 5.10938 5.85938Z" fill="#525252"/>
<path d="M2.25 22.5C1.95163 22.5 1.66548 22.3815 1.4545 22.1705C1.24353 21.9595 1.125 21.6734 1.125 21.375V14.625C1.125 14.4565 1.16283 14.2902 1.2357 14.1383C1.30858 13.9864 1.41463 13.8529 1.54604 13.7474C1.67745 13.642 1.83086 13.5675 1.99494 13.5293C2.15901 13.4911 2.32958 13.4902 2.49403 13.5268L9.24403 15.0268C9.5353 15.0915 9.78893 15.2693 9.94913 15.521C10.1093 15.7727 10.163 16.0778 10.0982 16.369C10.0335 16.6603 9.85574 16.9139 9.60401 17.0741C9.35229 17.2343 9.04724 17.288 8.75597 17.2232L3.375 16.0275V21.375C3.375 21.6734 3.25647 21.9595 3.0455 22.1705C2.83452 22.3815 2.54837 22.5 2.25 22.5Z" fill="#525252"/>
</svg>
