<svg width="22" height="16" viewBox="0 0 22 16" fill="none" xmlns="http://www.w3.org/2000/svg">
<path d="M19.9375 0H2.06251C0.925174 0 0 0.897137 0 2.00001V14C0 15.1029 0.925174 16 2.06251 16H19.9375C21.0748 16 22 15.1029 22 14V2.00001C22 0.897137 21.0748 0 19.9375 0V0ZM19.9375 1.33333C20.0309 1.33333 20.1198 1.35212 20.201 1.38494L11 9.11784L1.79896 1.38494C1.8802 1.35216 1.96906 1.33333 2.06247 1.33333H19.9375ZM19.9375 14.6666H2.06251C1.68319 14.6666 1.37499 14.3678 1.37499 13.9999V2.79361L10.5495 10.5039C10.6791 10.6126 10.8395 10.6667 11 10.6667C11.1605 10.6667 11.3209 10.6126 11.4505 10.5039L20.625 2.79361V14C20.625 14.3678 20.3168 14.6666 19.9375 14.6666V14.6666Z" fill="#525252"/>
</svg>
