<svg width="92" height="15" viewBox="0 0 92 15" fill="none" xmlns="http://www.w3.org/2000/svg">
<path d="M11.925 14.0201L7.36376 11.7284L2.80248 13.9816L3.57558 8.95518L0 5.31534L5.04447 4.48722L7.42174 0L9.76037 4.50647L14.7855 5.37311L11.1906 8.99369L11.925 14.0201Z" fill="#FFBB00"/>
<path d="M30.8377 14.0201L26.2764 11.7284L21.6958 13.9816L22.4689 8.95518L18.9126 5.31534L23.9378 4.48722L26.3344 0L28.6537 4.50647L33.6788 5.37311L30.1032 8.99369L30.8377 14.0201Z" fill="#FFBB00"/>
<path d="M50.206 14.0201L45.6447 11.7284L41.0835 13.9816L41.8566 8.95518L38.3003 5.31534L43.3255 4.48722L45.7027 0L48.0414 4.50647L53.0665 5.37311L49.4716 8.99369L50.206 14.0201Z" fill="#FFBB00"/>
<path d="M69.6135 14.0201L65.0523 11.7284L60.4716 13.9816L61.2448 8.95518L57.6885 5.31534L62.7329 4.48722L65.1102 0L67.4488 4.50647L72.474 5.37311L68.8791 8.99369L69.6135 14.0201Z" fill="#FFBB00"/>
<path d="M88.9819 14.0201L84.44 11.7284L79.8593 13.9816L80.6324 8.95518L77.0762 5.31534L82.1013 4.48722L84.4786 0L86.8172 4.50647L91.8424 5.37311L88.2475 8.99369L88.9819 14.0201Z" fill="#FFBB00"/>
</svg>
