<svg width="84" height="84" viewBox="0 0 84 84" fill="none" xmlns="http://www.w3.org/2000/svg">
<g filter="url(#filter0_d)">
<path d="M42 23.4148C31.752 23.4148 23.4148 31.752 23.4148 42C23.4148 49.3786 27.7903 56.0639 34.5632 59.0325C36.9198 60.0628 39.4219 60.5852 42 60.5852C43.5489 60.5852 45.0891 60.3937 46.5779 60.0166C47.6292 59.7503 48.2653 58.6823 47.9987 57.6313C47.7324 56.5801 46.6641 55.944 45.6135 56.2105C44.4397 56.5077 43.2239 56.6586 42 56.6586C39.9667 56.6586 37.9937 56.2468 36.1377 55.4355C30.794 53.0936 27.3413 47.8198 27.3413 42C27.3413 33.9172 33.9172 27.3413 42 27.3413C50.0828 27.3413 56.6586 33.9172 56.6586 42C56.6586 43.7219 56.3617 45.4081 55.7758 47.0118C55.2149 48.5472 53.8826 48.894 52.8231 48.7065C51.7543 48.5174 50.612 47.7276 50.612 46.0788V35.6836C50.612 34.5995 49.7331 33.7204 48.649 33.7204C47.8473 33.7204 47.1584 34.201 46.8533 34.8896C45.4705 33.9427 43.7988 33.388 42 33.388C37.2513 33.388 33.388 37.2513 33.388 42C33.388 46.7486 37.2513 50.612 42 50.612C43.9737 50.612 45.7941 49.9441 47.248 48.8231C47.5214 49.4407 47.8915 50.0105 48.3552 50.5184C49.3276 51.5835 50.6712 52.3132 52.1388 52.5727C53.6027 52.8316 55.1099 52.6087 56.3833 51.9451C57.814 51.199 58.8791 49.9591 59.4639 48.3591C60.208 46.3227 60.5852 44.183 60.5852 42C60.5852 31.752 52.248 23.4148 42 23.4148V23.4148ZM42 46.6854C39.4165 46.6854 37.3145 44.5837 37.3145 42C37.3145 39.4162 39.4165 37.3145 42 37.3145C44.5837 37.3145 46.6854 39.4162 46.6854 42C46.6854 44.5837 44.5837 46.6854 42 46.6854Z" fill="white"/>
<path d="M55.1352 28.8643C54.2799 29.7196 54.2016 31.0754 54.9424 32.032C57.1467 34.8792 58.3412 38.3497 58.3412 41.9998C58.3412 43.9194 58.0096 45.7999 57.3563 47.589C56.9612 48.6695 56.2849 49.4655 55.3456 49.9553C54.5088 50.3914 53.5085 50.5366 52.5296 50.3634C51.5467 50.1892 50.6525 49.7071 50.0122 49.0055C49.4912 48.4353 49.1575 47.7606 49.0128 46.9929C50.019 45.5838 50.6117 43.8596 50.6117 41.9998V35.6835C50.6117 34.5993 49.7329 33.7202 48.6487 33.7202C48.5534 33.7202 48.4598 33.7273 48.3682 33.7406V41.9998C48.3682 43.7033 47.7032 45.3027 46.5028 46.5029C44.4746 48.5311 41.4073 48.9026 38.9985 47.6171C37.9819 47.0746 36.7281 47.2717 35.9131 48.0864C37.4725 49.6459 39.6255 50.6118 41.9997 50.6118C43.9738 50.6118 45.7944 49.9437 47.2486 48.8223C47.5214 49.4403 47.8912 50.01 48.3552 50.5182C49.3273 51.5834 50.6713 52.313 52.1388 52.5725C53.6027 52.8314 55.1097 52.6085 56.383 51.9449C57.8137 51.1988 58.8791 49.959 59.4636 48.359C60.2077 46.3225 60.5849 44.1829 60.5849 41.9998C60.5849 36.8759 58.5005 32.2297 55.1352 28.8643V28.8643Z" fill="#5069DB" fill-opacity="0.11"/>
<path d="M47.9986 57.6312C47.9754 57.5387 47.9453 57.45 47.9101 57.3643L46.0268 57.8413C44.7181 58.1731 43.3631 58.3413 41.9999 58.3413C39.7329 58.3413 37.5334 57.8822 35.4638 56.9772C34.2339 56.4384 33.0865 55.7587 32.0341 54.947C31.0747 54.2069 29.7189 54.2815 28.8616 55.1382C30.4735 56.7507 32.3951 58.0821 34.5631 59.0324C36.9197 60.0627 39.4218 60.585 41.9999 60.585C43.5488 60.585 45.089 60.3936 46.5778 60.0164C47.6291 59.7502 48.2652 58.6822 47.9986 57.6312V57.6312Z" fill="#5069DB" fill-opacity="0.11"/>
</g>
<g filter="url(#filter1_d)">
<path d="M20.8516 33.0278C20.4158 28.3366 17.8521 25.7733 13.1609 25.3375C17.8521 24.9015 20.4155 22.3382 20.8511 17.647C21.2868 22.3382 23.8506 24.9015 28.5417 25.3373C23.8509 25.773 21.2874 28.3366 20.8516 33.0278Z" fill="url(#paint0_linear)"/>
</g>
<g filter="url(#filter2_d)">
<path d="M64.4306 33.6687C64.1401 30.5412 62.4309 28.8323 59.3035 28.5418C62.4309 28.2511 64.1399 26.5423 64.4302 23.4148C64.7208 26.5423 66.4299 28.2511 69.5574 28.5417C66.4301 28.8322 64.7211 30.5412 64.4306 33.6687Z" fill="url(#paint1_linear)"/>
</g>
<defs>
<filter id="filter0_d" x="20.7507" y="20.9226" width="42.4985" height="42.4985" filterUnits="userSpaceOnUse" color-interpolation-filters="sRGB">
<feFlood flood-opacity="0" result="BackgroundImageFix"/>
<feColorMatrix in="SourceAlpha" type="matrix" values="0 0 0 0 0 0 0 0 0 0 0 0 0 0 0 0 0 0 127 0"/>
<feOffset dy="0.171875"/>
<feGaussianBlur stdDeviation="1.33203"/>
<feColorMatrix type="matrix" values="0 0 0 0 0 0 0 0 0 0 0 0 0 0 0 0 0 0 0.21 0"/>
<feBlend mode="normal" in2="BackgroundImageFix" result="effect1_dropShadow"/>
<feBlend mode="normal" in="SourceGraphic" in2="effect1_dropShadow" result="shape"/>
</filter>
<filter id="filter1_d" x="12.9031" y="17.647" width="15.8965" height="15.8965" filterUnits="userSpaceOnUse" color-interpolation-filters="sRGB">
<feFlood flood-opacity="0" result="BackgroundImageFix"/>
<feColorMatrix in="SourceAlpha" type="matrix" values="0 0 0 0 0 0 0 0 0 0 0 0 0 0 0 0 0 0 127 0"/>
<feOffset dy="0.257812"/>
<feGaussianBlur stdDeviation="0.128906"/>
<feColorMatrix type="matrix" values="0 0 0 0 0 0 0 0 0 0 0 0 0 0 0 0 0 0 0.12 0"/>
<feBlend mode="normal" in2="BackgroundImageFix" result="effect1_dropShadow"/>
<feBlend mode="normal" in="SourceGraphic" in2="effect1_dropShadow" result="shape"/>
</filter>
<filter id="filter2_d" x="59.0457" y="23.4148" width="10.7695" height="10.7695" filterUnits="userSpaceOnUse" color-interpolation-filters="sRGB">
<feFlood flood-opacity="0" result="BackgroundImageFix"/>
<feColorMatrix in="SourceAlpha" type="matrix" values="0 0 0 0 0 0 0 0 0 0 0 0 0 0 0 0 0 0 127 0"/>
<feOffset dy="0.257812"/>
<feGaussianBlur stdDeviation="0.128906"/>
<feColorMatrix type="matrix" values="0 0 0 0 0 0 0 0 0 0 0 0 0 0 0 0 0 0 0.12 0"/>
<feBlend mode="normal" in2="BackgroundImageFix" result="effect1_dropShadow"/>
<feBlend mode="normal" in="SourceGraphic" in2="effect1_dropShadow" result="shape"/>
</filter>
<linearGradient id="paint0_linear" x1="20.8513" y1="16.5483" x2="20.8513" y2="35.2251" gradientUnits="userSpaceOnUse">
<stop stop-color="#FFED91"/>
<stop offset="0.430147" stop-color="#FFCC40"/>
<stop offset="0.979167" stop-color="#E7A645"/>
</linearGradient>
<linearGradient id="paint1_linear" x1="64.4304" y1="23.4148" x2="64.4304" y2="33.6687" gradientUnits="userSpaceOnUse">
<stop stop-color="#FFE291"/>
<stop offset="0.921875" stop-color="#FFBB00"/>
</linearGradient>
</defs>
</svg>
