<svg width="16" height="8" viewBox="0 0 16 8" fill="none" xmlns="http://www.w3.org/2000/svg">
<path d="M16 4.02353C16 5.13726 15.6028 6.07843 14.8085 6.84706C14.0142 7.61569 13.0278 8 11.8494 8C10.3131 8 9.00818 7.3098 7.93453 5.92941C7.41953 6.53333 6.83906 7.01961 6.19313 7.38824C5.55592 7.74902 4.89253 7.92941 4.20295 7.92941C2.97218 7.92941 1.96399 7.56863 1.1784 6.84706C0.392799 6.12549 0 5.16078 0 3.95294C0 2.82353 0.392799 1.88235 1.1784 1.12941C1.97272 0.376471 2.98091 0 4.20295 0C5.73923 0 7.00927 0.682353 8.01309 2.04706C9.1042 0.713726 10.383 0.0470588 11.8494 0.0470588C13.0715 0.0470588 14.0666 0.411765 14.8347 1.14118C15.6116 1.86275 16 2.82353 16 4.02353ZM4.33388 5.54118C5.10202 5.54118 5.82651 5.01177 6.50737 3.95294C6.17567 3.41961 5.83524 3.02353 5.48609 2.76471C5.13693 2.49804 4.74414 2.36471 4.30769 2.36471C3.81888 2.36471 3.42171 2.51765 3.1162 2.82353C2.81942 3.12157 2.67103 3.50588 2.67103 3.97647C2.67103 4.44706 2.81942 4.82745 3.1162 5.11765C3.42171 5.4 3.82761 5.54118 4.33388 5.54118ZM11.6661 2.43529C10.9067 2.43529 10.1735 2.95686 9.46645 4C10.1648 5.07451 10.9067 5.61176 11.6923 5.61176C12.1811 5.61176 12.5739 5.4549 12.8707 5.14118C13.1675 4.82745 13.3159 4.44706 13.3159 4C13.3159 3.5451 13.1631 3.17255 12.8576 2.88235C12.5521 2.58431 12.1549 2.43529 11.6661 2.43529Z" fill="white"/>
</svg>
