<svg width="181" height="38" viewBox="0 0 181 38" fill="none" xmlns="http://www.w3.org/2000/svg">
<path d="M42.7734 15.4297C41.862 15.4297 41.1562 15.7734 40.6562 16.4609C40.1562 17.1432 39.9062 18.0964 39.9062 19.3203C39.9062 21.8672 40.862 23.1406 42.7734 23.1406C43.5755 23.1406 44.5469 22.9401 45.6875 22.5391V24.5703C44.75 24.9609 43.7031 25.1562 42.5469 25.1562C40.8854 25.1562 39.6146 24.6536 38.7344 23.6484C37.8542 22.638 37.4141 21.1901 37.4141 19.3047C37.4141 18.1172 37.6302 17.0781 38.0625 16.1875C38.4948 15.2917 39.1146 14.6068 39.9219 14.1328C40.7344 13.6536 41.6849 13.4141 42.7734 13.4141C43.8828 13.4141 44.9974 13.6823 46.1172 14.2188L45.3359 16.1875C44.9089 15.9844 44.4792 15.8073 44.0469 15.6562C43.6146 15.5052 43.1901 15.4297 42.7734 15.4297ZM50.3203 25H47.9375V12.8438H50.3203V25ZM56.4453 17.7969C55.9401 17.7969 55.5443 17.9583 55.2578 18.2812C54.9714 18.599 54.8073 19.0521 54.7656 19.6406H58.1094C58.099 19.0521 57.9453 18.599 57.6484 18.2812C57.3516 17.9583 56.9505 17.7969 56.4453 17.7969ZM56.7812 25.1562C55.375 25.1562 54.276 24.7682 53.4844 23.9922C52.6927 23.2161 52.2969 22.1172 52.2969 20.6953C52.2969 19.2318 52.6615 18.1016 53.3906 17.3047C54.125 16.5026 55.138 16.1016 56.4297 16.1016C57.6641 16.1016 58.625 16.4531 59.3125 17.1562C60 17.8594 60.3438 18.8307 60.3438 20.0703V21.2266H54.7109C54.737 21.9036 54.9375 22.4323 55.3125 22.8125C55.6875 23.1927 56.2135 23.3828 56.8906 23.3828C57.4167 23.3828 57.9141 23.3281 58.3828 23.2188C58.8516 23.1094 59.3411 22.9349 59.8516 22.6953V24.5391C59.4349 24.7474 58.9896 24.901 58.5156 25C58.0417 25.1042 57.4635 25.1562 56.7812 25.1562ZM67.8281 25L67.3672 23.8125H67.3047C66.9036 24.3177 66.4896 24.6693 66.0625 24.8672C65.6406 25.0599 65.0885 25.1562 64.4062 25.1562C63.5677 25.1562 62.9062 24.9167 62.4219 24.4375C61.9427 23.9583 61.7031 23.276 61.7031 22.3906C61.7031 21.4635 62.026 20.7812 62.6719 20.3438C63.3229 19.901 64.3021 19.6562 65.6094 19.6094L67.125 19.5625V19.1797C67.125 18.2943 66.6719 17.8516 65.7656 17.8516C65.0677 17.8516 64.2474 18.0625 63.3047 18.4844L62.5156 16.875C63.5208 16.349 64.6354 16.0859 65.8594 16.0859C67.0312 16.0859 67.9297 16.3411 68.5547 16.8516C69.1797 17.362 69.4922 18.138 69.4922 19.1797V25H67.8281ZM67.125 20.9531L66.2031 20.9844C65.5104 21.0052 64.9948 21.1302 64.6562 21.3594C64.3177 21.5885 64.1484 21.9375 64.1484 22.4062C64.1484 23.0781 64.5339 23.4141 65.3047 23.4141C65.8568 23.4141 66.2969 23.2552 66.625 22.9375C66.9583 22.6198 67.125 22.1979 67.125 21.6719V20.9531ZM80.0156 25H77.6328V19.8984C77.6328 19.2682 77.5208 18.7969 77.2969 18.4844C77.0729 18.1667 76.7161 18.0078 76.2266 18.0078C75.5599 18.0078 75.0781 18.2318 74.7812 18.6797C74.4844 19.1224 74.3359 19.8594 74.3359 20.8906V25H71.9531V16.2656H73.7734L74.0938 17.3828H74.2266C74.4922 16.9609 74.8568 16.6432 75.3203 16.4297C75.7891 16.2109 76.3203 16.1016 76.9141 16.1016C77.9297 16.1016 78.7005 16.3776 79.2266 16.9297C79.7526 17.4766 80.0156 18.2682 80.0156 19.3047V25ZM93.3906 25H86.8125V13.5781H93.3906V15.5625H89.2344V18.0703H93.1016V20.0547H89.2344V23H93.3906V25ZM103.414 25H101.031V19.8984C101.031 19.2682 100.924 18.7969 100.711 18.4844C100.503 18.1667 100.172 18.0078 99.7188 18.0078C99.1094 18.0078 98.6667 18.2318 98.3906 18.6797C98.1146 19.1276 97.9766 19.8646 97.9766 20.8906V25H95.5938V16.2656H97.4141L97.7344 17.3828H97.8672C98.1016 16.9818 98.4401 16.6693 98.8828 16.4453C99.3255 16.2161 99.8333 16.1016 100.406 16.1016C101.714 16.1016 102.599 16.5286 103.062 17.3828H103.273C103.508 16.9766 103.852 16.6615 104.305 16.4375C104.763 16.2135 105.279 16.1016 105.852 16.1016C106.841 16.1016 107.589 16.3568 108.094 16.8672C108.604 17.3724 108.859 18.1849 108.859 19.3047V25H106.469V19.8984C106.469 19.2682 106.362 18.7969 106.148 18.4844C105.94 18.1667 105.609 18.0078 105.156 18.0078C104.573 18.0078 104.135 18.2161 103.844 18.6328C103.557 19.0495 103.414 19.7109 103.414 20.6172V25ZM116.859 25L116.398 23.8125H116.336C115.935 24.3177 115.521 24.6693 115.094 24.8672C114.672 25.0599 114.12 25.1562 113.438 25.1562C112.599 25.1562 111.938 24.9167 111.453 24.4375C110.974 23.9583 110.734 23.276 110.734 22.3906C110.734 21.4635 111.057 20.7812 111.703 20.3438C112.354 19.901 113.333 19.6562 114.641 19.6094L116.156 19.5625V19.1797C116.156 18.2943 115.703 17.8516 114.797 17.8516C114.099 17.8516 113.279 18.0625 112.336 18.4844L111.547 16.875C112.552 16.349 113.667 16.0859 114.891 16.0859C116.062 16.0859 116.961 16.3411 117.586 16.8516C118.211 17.362 118.523 18.138 118.523 19.1797V25H116.859ZM116.156 20.9531L115.234 20.9844C114.542 21.0052 114.026 21.1302 113.688 21.3594C113.349 21.5885 113.18 21.9375 113.18 22.4062C113.18 23.0781 113.565 23.4141 114.336 23.4141C114.888 23.4141 115.328 23.2552 115.656 22.9375C115.99 22.6198 116.156 22.1979 116.156 21.6719V20.9531ZM120.883 14.0078C120.883 13.2318 121.315 12.8438 122.18 12.8438C123.044 12.8438 123.477 13.2318 123.477 14.0078C123.477 14.3776 123.367 14.6667 123.148 14.875C122.935 15.0781 122.612 15.1797 122.18 15.1797C121.315 15.1797 120.883 14.7891 120.883 14.0078ZM123.367 25H120.984V16.2656H123.367V25ZM128.258 25H125.875V12.8438H128.258V25Z" fill="#333333"/>
<g clip-path="url(#clip0)">
<g filter="url(#filter0_d)">
<path d="M16.1268 8C9.99141 8 5 12.9914 5 19.1268C5 23.5444 7.61956 27.5468 11.6745 29.3241C13.0853 29.9409 14.5833 30.2536 16.1268 30.2536C17.0542 30.2536 17.9762 30.139 18.8676 29.9132C19.497 29.7538 19.8778 29.1144 19.7182 28.4852C19.5588 27.8558 18.9192 27.475 18.2902 27.6346C17.5874 27.8125 16.8596 27.9028 16.1268 27.9028C14.9095 27.9028 13.7283 27.6563 12.6171 27.1706C9.41789 25.7685 7.3508 22.6111 7.3508 19.1268C7.3508 14.2877 11.2877 10.3508 16.1268 10.3508C20.9659 10.3508 24.9028 14.2877 24.9028 19.1268C24.9028 20.1577 24.7251 21.1673 24.3743 22.1274C24.0385 23.0466 23.2408 23.2542 22.6065 23.142C21.9666 23.0287 21.2827 22.5559 21.2827 21.5688V15.3453C21.2827 14.6962 20.7566 14.1699 20.1075 14.1699C19.6275 14.1699 19.2151 14.4576 19.0325 14.8699C18.2046 14.303 17.2037 13.9709 16.1268 13.9709C13.2838 13.9709 10.9709 16.2838 10.9709 19.1268C10.9709 21.9698 13.2838 24.2827 16.1268 24.2827C17.3085 24.2827 18.3983 23.8829 19.2688 23.2118C19.4325 23.5815 19.654 23.9226 19.9316 24.2267C20.5138 24.8644 21.3182 25.3013 22.1969 25.4566C23.0733 25.6116 23.9757 25.4782 24.738 25.0809C25.5945 24.6342 26.2322 23.8919 26.5823 22.934C27.0278 21.7148 27.2536 20.4338 27.2536 19.1268C27.2536 12.9914 22.2622 8 16.1268 8ZM16.1268 21.9319C14.5801 21.9319 13.3217 20.6737 13.3217 19.1268C13.3217 17.5799 14.5801 16.3217 16.1268 16.3217C17.6737 16.3217 18.9319 17.5799 18.9319 19.1268C18.9319 20.6737 17.6737 21.9319 16.1268 21.9319Z" fill="#5373E5"/>
</g>
<g filter="url(#filter1_d)">
<path d="M4.50016 12C4.24516 9.25499 2.745 7.75506 0 7.50008C2.745 7.24493 4.245 5.74501 4.49985 3C4.75485 5.74501 6.255 7.24493 9 7.49992C6.25516 7.75491 4.75516 9.25499 4.50016 12Z" fill="url(#paint0_linear)"/>
</g>
<g filter="url(#filter2_d)">
<path d="M29.0001 13C28.8301 11.17 27.83 10.17 26 10.0001C27.83 9.82996 28.83 8.83001 28.9999 7C29.1699 8.83001 30.17 9.82996 32 9.99995C30.1701 10.1699 29.1701 11.17 29.0001 13Z" fill="url(#paint1_linear)"/>
</g>
</g>
<defs>
<filter id="filter0_d" x="5" y="8" width="22.2536" height="22.5536" filterUnits="userSpaceOnUse" color-interpolation-filters="sRGB">
<feFlood flood-opacity="0" result="BackgroundImageFix"/>
<feColorMatrix in="SourceAlpha" type="matrix" values="0 0 0 0 0 0 0 0 0 0 0 0 0 0 0 0 0 0 127 0"/>
<feOffset dy="0.3"/>
<feColorMatrix type="matrix" values="0 0 0 0 0 0 0 0 0 0 0 0 0 0 0 0 0 0 0.05 0"/>
<feBlend mode="normal" in2="BackgroundImageFix" result="effect1_dropShadow"/>
<feBlend mode="normal" in="SourceGraphic" in2="effect1_dropShadow" result="shape"/>
</filter>
<filter id="filter1_d" x="-0.122142" y="3" width="9.24428" height="9.24428" filterUnits="userSpaceOnUse" color-interpolation-filters="sRGB">
<feFlood flood-opacity="0" result="BackgroundImageFix"/>
<feColorMatrix in="SourceAlpha" type="matrix" values="0 0 0 0 0 0 0 0 0 0 0 0 0 0 0 0 0 0 127 0"/>
<feOffset dy="0.122142"/>
<feGaussianBlur stdDeviation="0.0610709"/>
<feColorMatrix type="matrix" values="0 0 0 0 0 0 0 0 0 0 0 0 0 0 0 0 0 0 0.12 0"/>
<feBlend mode="normal" in2="BackgroundImageFix" result="effect1_dropShadow"/>
<feBlend mode="normal" in="SourceGraphic" in2="effect1_dropShadow" result="shape"/>
</filter>
<filter id="filter2_d" x="25.8908" y="7" width="6.21848" height="6.21848" filterUnits="userSpaceOnUse" color-interpolation-filters="sRGB">
<feFlood flood-opacity="0" result="BackgroundImageFix"/>
<feColorMatrix in="SourceAlpha" type="matrix" values="0 0 0 0 0 0 0 0 0 0 0 0 0 0 0 0 0 0 127 0"/>
<feOffset dy="0.109242"/>
<feGaussianBlur stdDeviation="0.0546208"/>
<feColorMatrix type="matrix" values="0 0 0 0 0 0 0 0 0 0 0 0 0 0 0 0 0 0 0.12 0"/>
<feBlend mode="normal" in2="BackgroundImageFix" result="effect1_dropShadow"/>
<feBlend mode="normal" in="SourceGraphic" in2="effect1_dropShadow" result="shape"/>
</filter>
<linearGradient id="paint0_linear" x1="4.5" y1="2.35714" x2="4.5" y2="13.2857" gradientUnits="userSpaceOnUse">
<stop stop-color="#FFED91"/>
<stop offset="0.430147" stop-color="#FFCC40"/>
<stop offset="0.979167" stop-color="#E7A645"/>
</linearGradient>
<linearGradient id="paint1_linear" x1="29" y1="7" x2="29" y2="13" gradientUnits="userSpaceOnUse">
<stop stop-color="#FFE291"/>
<stop offset="0.921875" stop-color="#FFBB00"/>
</linearGradient>
<clipPath id="clip0">
<rect width="32" height="32" fill="white" transform="translate(0 3)"/>
</clipPath>
</defs>
</svg>
