<svg width="91" height="14" viewBox="0 0 91 14" fill="none" xmlns="http://www.w3.org/2000/svg">
<path d="M11.823 14L7.30074 11.7115L2.77849 13.9615L3.54498 8.94231L0 5.3077L5.0013 4.48077L7.35823 0L9.67684 4.49999L14.659 5.36539L11.0948 8.98077L11.823 14Z" fill="#FFBB00"/>
<path d="M30.5738 14L26.0515 11.7115L21.5101 13.9615L22.2766 8.94231L18.7507 5.3077L23.7329 4.48077L26.109 0L28.4084 4.49999L33.3906 5.36539L29.8456 8.98077L30.5738 14Z" fill="#FFBB00"/>
<path d="M49.7763 14L45.254 11.7115L40.7318 13.9615L41.4983 8.94231L37.9724 5.3077L42.9546 4.48077L45.3115 0L47.6301 4.49999L52.6123 5.36539L49.0481 8.98077L49.7763 14Z" fill="#FFBB00"/>
<path d="M69.0178 14L64.4956 11.7115L59.9542 13.9615L60.7207 8.94231L57.1948 5.3077L62.1961 4.48077L64.5531 0L66.8717 4.49999L71.8538 5.36539L68.2897 8.98077L69.0178 14Z" fill="#FFBB00"/>
<path d="M88.1641 14L83.6418 11.7115L79.1004 13.9615L79.8669 8.94231L76.3411 5.3077L81.3424 4.48077L83.6993 0L86.0179 4.49999L91 5.36539L87.4359 8.98077L88.1641 14Z" fill="#EBECF0"/>
<path d="M86.2554 12.9813L83.7173 11.7115L79.1759 13.9615L79.9423 8.94231L76.4165 5.3077L81.3986 4.48077L83.7556 0L86.2554 4.49353V12.9813Z" fill="#FFBB00"/>
</svg>
