<svg width="1440" height="411" viewBox="0 0 1440 411" fill="none" xmlns="http://www.w3.org/2000/svg">
<g style="mix-blend-mode:overlay" opacity="0.05">
<path d="M1440 411V64.9265C1379.53 95.4269 1336.05 157.032 1327.99 229.81C1304.09 198.101 1267.23 177.869 1225.77 177.869C1183.73 177.869 1146.59 198.705 1122.69 230.716C1099.94 180.586 1051.28 145.858 994.841 145.858H994.553C994.841 142.838 994.841 140.121 994.841 137.101C994.841 61.3028 936.389 0 864.115 0C792.993 0 735.117 59.7928 733.389 134.081C696.821 91.1992 643.551 64.0206 584.235 64.0206C506.491 64.0206 439.112 110.526 405.999 178.17C388.434 161.259 365.111 150.69 339.484 150.69C316.737 150.69 296.005 158.843 279.304 172.433C258.284 127.437 213.365 95.7289 161.824 95.7289C136.197 95.7289 112.298 103.58 92.1416 116.868C84.6551 63.7186 48.0864 20.8369 0 5.73767V410.698H1440V411Z" fill="url(#paint0_linear)"/>
</g>
<defs>
<linearGradient id="paint0_linear" x1="720.183" y1="130.861" x2="719.966" y2="411" gradientUnits="userSpaceOnUse">
<stop stop-color="#05122B"/>
<stop offset="1" stop-opacity="0"/>
</linearGradient>
</defs>
</svg>
