<svg width="1440" height="255" viewBox="0 0 1440 255" fill="none" xmlns="http://www.w3.org/2000/svg">
<g style="mix-blend-mode:overlay">
<path d="M1440 404V190.977C1424.74 184.602 1407.47 180.884 1389.62 180.884C1358.53 180.884 1330.03 191.508 1308.44 209.305C1289.72 140.51 1222.07 89.5124 1141.75 89.5124C1103.46 89.5124 1068.05 101.199 1039.26 120.589C1039.55 118.199 1039.55 115.543 1039.55 112.887C1039.55 50.467 984.854 0.000244141 917.201 0.000244141C849.548 0.000244141 794.85 50.467 794.85 112.887C794.85 125.105 797.153 137.057 800.896 148.213C779.88 132.808 753.395 123.511 724.606 123.511C679.12 123.511 639.68 146.354 618.377 180.353C603.695 167.869 584.118 160.166 562.527 160.166C542.951 160.166 524.814 166.541 510.708 177.165C489.116 145.026 450.828 123.777 406.781 123.777C348.341 123.777 299.4 161.76 287.597 212.226C255.93 176.634 208.141 154.057 154.306 154.057C86.6533 154.057 27.9248 190.18 0 242.772V403.735H1440V404Z" fill="url(#paint0_linear)"/>
</g>
<defs>
<linearGradient id="paint0_linear" x1="720" y1="20.5659" x2="720" y2="258" gradientUnits="userSpaceOnUse">
<stop stop-color="white" stop-opacity="0"/>
<stop offset="1" stop-color="white"/>
</linearGradient>
</defs>
</svg>
