<svg width="240" height="240" viewBox="0 0 240 240" fill="none" xmlns="http://www.w3.org/2000/svg">
<g filter="url(#filter0_d)">
<path d="M120 66.8994C90.7197 66.8994 66.8992 90.7199 66.8992 120C66.8992 141.082 79.4005 160.183 98.7517 168.664C105.485 171.608 112.634 173.1 120 173.1C124.425 173.1 128.826 172.554 133.08 171.476C136.083 170.715 137.901 167.664 137.139 164.661C136.378 161.657 133.326 159.84 130.324 160.602C126.97 161.451 123.497 161.882 120 161.882C114.19 161.882 108.553 160.705 103.25 158.387C87.9827 151.696 78.1179 136.628 78.1179 120C78.1179 96.9062 96.906 78.1181 120 78.1181C143.093 78.1181 161.882 96.9062 161.882 120C161.882 124.92 161.033 129.738 159.359 134.319C157.757 138.706 153.95 139.697 150.923 139.162C147.869 138.621 144.605 136.365 144.605 131.654V101.953C144.605 98.8557 142.094 96.3439 138.997 96.3439C136.706 96.3439 134.738 97.7173 133.866 99.6845C129.916 96.9791 125.139 95.3943 120 95.3943C106.432 95.3943 95.394 106.432 95.394 120C95.394 133.568 106.432 144.606 120 144.606C125.639 144.606 130.84 142.697 134.994 139.495C135.775 141.259 136.833 142.887 138.157 144.338C140.936 147.382 144.775 149.466 148.968 150.208C153.15 150.947 157.457 150.311 161.095 148.415C165.182 146.283 168.226 142.74 169.896 138.169C172.023 132.351 173.1 126.237 173.1 120C173.1 90.7199 149.28 66.8994 120 66.8994V66.8994ZM120 133.387C112.618 133.387 106.613 127.382 106.613 120C106.613 112.618 112.618 106.613 120 106.613C127.382 106.613 133.387 112.618 133.387 120C133.387 127.382 127.382 133.387 120 133.387Z" fill="white"/>
<path d="M157.529 82.4696C155.086 84.9133 154.862 88.7871 156.978 91.5201C163.277 99.655 166.689 109.571 166.689 120C166.689 125.484 165.742 130.857 163.875 135.969C162.747 139.056 160.814 141.33 158.131 142.729C155.74 143.976 152.882 144.391 150.085 143.895C147.277 143.398 144.722 142.021 142.892 140.016C141.404 138.387 140.45 136.459 140.037 134.266C142.912 130.239 144.605 125.313 144.605 120V101.953C144.605 98.8553 142.094 96.3435 138.997 96.3435C138.724 96.3435 138.457 96.3638 138.195 96.4018V120C138.195 124.867 136.295 129.437 132.865 132.866C127.071 138.66 118.307 139.722 111.425 136.049C108.52 134.499 104.938 135.062 102.609 137.39C107.065 141.846 113.216 144.605 120 144.605C125.64 144.605 130.841 142.696 134.996 139.493C135.776 141.258 136.832 142.886 138.158 144.338C140.936 147.381 144.775 149.466 148.968 150.207C153.151 150.947 157.457 150.31 161.095 148.414C165.182 146.282 168.226 142.74 169.896 138.169C172.022 132.35 173.1 126.237 173.1 120C173.1 105.36 167.145 92.0848 157.529 82.4696V82.4696Z" fill="#5069DB" fill-opacity="0.11"/>
<path d="M137.139 164.661C137.073 164.396 136.987 164.143 136.886 163.898L131.505 165.261C127.766 166.209 123.895 166.689 120 166.689C113.523 166.689 107.238 165.378 101.325 162.792C97.811 161.253 94.5328 159.311 91.5259 156.992C88.7849 154.877 84.9111 155.09 82.4617 157.538C87.0671 162.145 92.5574 165.949 98.7517 168.664C105.485 171.608 112.634 173.1 120 173.1C124.425 173.1 128.826 172.553 133.08 171.476C136.083 170.715 137.901 167.663 137.139 164.661V164.661Z" fill="#5069DB" fill-opacity="0.11"/>
</g>
<g filter="url(#filter1_d)">
<path d="M59.5757 94.3652C58.3306 80.9619 51.0056 73.638 37.6023 72.393C51.0056 71.1471 58.3299 63.8233 59.5742 50.4199C60.8193 63.8233 68.1443 71.1471 81.5476 72.3922C68.1451 73.6372 60.8208 80.9619 59.5757 94.3652Z" fill="url(#paint0_linear)"/>
</g>
<g filter="url(#filter2_d)">
<path d="M184.087 96.1963C183.257 87.2607 178.374 82.3781 169.438 81.5481C178.374 80.7176 183.256 75.835 184.086 66.8994C184.916 75.835 189.799 80.7176 198.735 81.5476C189.8 82.3776 184.917 87.2607 184.087 96.1963Z" fill="url(#paint1_linear)"/>
</g>
<defs>
<filter id="filter0_d" x="60.5879" y="60.9953" width="118.824" height="118.824" filterUnits="userSpaceOnUse" color-interpolation-filters="sRGB">
<feFlood flood-opacity="0" result="BackgroundImageFix"/>
<feColorMatrix in="SourceAlpha" type="matrix" values="0 0 0 0 0 0 0 0 0 0 0 0 0 0 0 0 0 0 127 0"/>
<feOffset dy="0.40718"/>
<feGaussianBlur stdDeviation="3.15565"/>
<feColorMatrix type="matrix" values="0 0 0 0 0 0 0 0 0 0 0 0 0 0 0 0 0 0 0.21 0"/>
<feBlend mode="normal" in2="BackgroundImageFix" result="effect1_dropShadow"/>
<feBlend mode="normal" in="SourceGraphic" in2="effect1_dropShadow" result="shape"/>
</filter>
<filter id="filter1_d" x="36.9915" y="50.4199" width="45.1669" height="45.1669" filterUnits="userSpaceOnUse" color-interpolation-filters="sRGB">
<feFlood flood-opacity="0" result="BackgroundImageFix"/>
<feColorMatrix in="SourceAlpha" type="matrix" values="0 0 0 0 0 0 0 0 0 0 0 0 0 0 0 0 0 0 127 0"/>
<feOffset dy="0.61077"/>
<feGaussianBlur stdDeviation="0.305385"/>
<feColorMatrix type="matrix" values="0 0 0 0 0 0 0 0 0 0 0 0 0 0 0 0 0 0 0.12 0"/>
<feBlend mode="normal" in2="BackgroundImageFix" result="effect1_dropShadow"/>
<feBlend mode="normal" in="SourceGraphic" in2="effect1_dropShadow" result="shape"/>
</filter>
<filter id="filter2_d" x="168.827" y="66.8994" width="30.5184" height="30.5184" filterUnits="userSpaceOnUse" color-interpolation-filters="sRGB">
<feFlood flood-opacity="0" result="BackgroundImageFix"/>
<feColorMatrix in="SourceAlpha" type="matrix" values="0 0 0 0 0 0 0 0 0 0 0 0 0 0 0 0 0 0 127 0"/>
<feOffset dy="0.61077"/>
<feGaussianBlur stdDeviation="0.305385"/>
<feColorMatrix type="matrix" values="0 0 0 0 0 0 0 0 0 0 0 0 0 0 0 0 0 0 0.12 0"/>
<feBlend mode="normal" in2="BackgroundImageFix" result="effect1_dropShadow"/>
<feBlend mode="normal" in="SourceGraphic" in2="effect1_dropShadow" result="shape"/>
</filter>
<linearGradient id="paint0_linear" x1="59.575" y1="47.281" x2="59.575" y2="100.643" gradientUnits="userSpaceOnUse">
<stop stop-color="#FFED91"/>
<stop offset="0.430147" stop-color="#FFCC40"/>
<stop offset="0.979167" stop-color="#E7A645"/>
</linearGradient>
<linearGradient id="paint1_linear" x1="184.086" y1="66.8994" x2="184.086" y2="96.1963" gradientUnits="userSpaceOnUse">
<stop stop-color="#FFE291"/>
<stop offset="0.921875" stop-color="#FFBB00"/>
</linearGradient>
</defs>
</svg>
